# xmcd
#
# Track frame offsets: 
#        150
#        10793
#        24443
#        52813
#        65475
#        80693
#        89355
#        97695
#        112133
#        121835
#        137460
#        150240
#
# Disc length: 2199 seconds
#
# Revision: 0
# Processed by: cddbd v1.5.2PL0 Copyright (c) Steve Scherf et al.
# Submitted via: ExactAudioCopy v0.95a5
#
DISCID=8308950c
DTITLE=Shakey Jake Harris - Good Times
DYEAR=1994
DGENRE=Blues
TTITLE0=Worried Blues
TTITLE1=My Foolish Heart
TTITLE2=Sunset Blues
TTITLE3=You Spoiled Your Baby
TTITLE4=Tear Drops
TTITLE5=Just Shakey
TTITLE6=Jake's Blues
TTITLE7=Still Your Fool
TTITLE8=Keep A-Loving Me Baby
TTITLE9=Call Me When You Need Me
TTITLE10=Huffin' And Puffin'
TTITLE11=Good Times
EXTD=
EXTT0=
EXTT1=
EXTT2=
EXTT3=
EXTT4=
EXTT5=
EXTT6=
EXTT7=
EXTT8=
EXTT9=
EXTT10=
EXTT11=
PLAYORDER=
